PathFileType	4	(X/Y/Z)	D:\TRACE\v60_Jaco2_6-2-23\BothDRS_Motion3_3-v60.trc
DataRate	CameraRate	NumFrames	NumMarkers	Units	OrigDataRate	OrigDataStartFrame	OrigNumFrames
100.00	100.00	      34	9	mm	100.00	2626	      7000
Frame#	Time	front left toe			Front right toe			aft left toe			aft right toe			Arm			FL body			FR body			AL Body			AR Body			
		X1	Y1	Z1	X2	Y2	Z2	X3	Y3	Z3	X4	Y4	Z4	X5	Y5	Z5	X6	Y6	Z6	X7	Y7	Z7	X8	Y8	Z8	X9	Y9	Z9	

2626	26.250	-166.70393	33.93404	-116.63790	216.65024	30.17857	-141.21550	-140.60289	-28.27876	495.59299	212.85675	-26.80855	497.98175	44.01097	1151.80103	-417.83072	-49.82536	547.62439	-291.35764	108.84085	546.03387	-293.79672	-28.84943	492.07715	651.23035	123.09703	481.09891	647.89551	
2627	26.260	-167.29970	30.87532	-118.26546	215.92499	29.91128	-141.10374	-140.73991	-28.19201	495.53452	213.06679	-28.45564	499.14426	44.81868	1151.81799	-417.41211	-49.51579	547.02222	-291.20288	108.62762	545.73773	-293.05569	-30.69186	492.80444	651.44983	121.57551	482.19382	648.61774	
2628	26.270	-168.67310	31.60694	-118.84481	215.60594	30.38022	-140.38654	-141.03255	-28.02475	495.66046	212.85823	-27.44105	498.57904	45.60612	1151.79968	-417.50677	-49.45763	547.07703	-291.05231	108.70417	545.79700	-292.72510	-32.33632	494.35410	651.90845	120.21445	483.53876	649.28180	
2629	26.280	-169.03107	30.85387	-118.08076	215.40451	31.39387	-140.28833	-141.29573	-27.75611	495.19394	211.76813	-26.86158	499.96906	46.32207	1151.83850	-418.40503	-49.26775	548.02863	-290.69699	109.28920	546.15118	-291.70932	-33.81833	495.18277	652.53497	118.22887	484.52383	649.98627	
2630	26.290	-168.80385	29.23681	-117.31170	213.84781	34.43855	-140.85960	-141.16931	-25.02526	495.17047	210.54619	-28.53139	500.13049	46.31147	1151.79187	-419.28488	-48.92800	549.42175	-290.46683	110.12015	547.19501	-291.48688	-35.21155	495.45645	652.58649	116.82053	484.62820	650.64667	
2631	26.300	-169.29823	29.27636	-118.05156	210.45105	37.93122	-137.58507	-139.05875	-20.62326	497.47708	211.31352	-28.39884	499.30017	47.03904	1151.35815	-419.15817	-48.57534	550.39532	-290.29318	109.82486	548.07648	-290.86224	-36.86291	495.40671	652.69403	115.16260	484.42709	651.03564	
2632	26.310	-170.06900	30.05439	-118.89144	207.40018	44.71656	-134.50325	-134.60391	-12.45511	497.95026	210.81256	-28.53691	499.41861	47.61635	1151.77063	-418.13779	-48.12504	550.56726	-290.24133	110.13711	548.47040	-290.53394	-38.49215	495.44705	652.82855	113.44698	484.45050	651.23230	
2633	26.320	-170.57573	29.67584	-118.93891	206.00174	54.34674	-133.40434	-132.01634	-2.25892	498.05295	210.44565	-27.83570	499.79630	48.90219	1153.00049	-416.51572	-47.93605	550.18298	-290.15900	110.18990	548.07239	-290.38089	-39.61664	495.82779	652.70343	112.53345	485.02850	651.63525	
2634	26.330	-170.72174	28.83255	-118.41010	205.79224	66.82081	-132.94942	-132.50620	10.80051	497.77032	210.25146	-27.77786	499.81351	49.88487	1154.72388	-415.50793	-48.04327	549.74493	-290.06161	110.52198	547.65735	-290.26093	-40.65655	495.96664	653.17999	111.63979	485.12045	651.95459	
2635	26.340	-171.31142	28.66973	-118.33529	209.16008	79.55374	-132.66690	-135.44327	23.43899	497.20163	210.15939	-27.91832	499.92725	51.01143	1154.95349	-414.70325	-48.33152	549.32849	-289.64148	110.46610	547.42358	-289.86340	-41.24693	495.54968	653.54089	110.83041	484.67178	652.32324	
2636	26.350	-171.51825	28.74286	-118.40561	211.00124	92.75211	-132.40614	-140.31349	36.44064	496.96576	209.92918	-28.12749	500.03616	51.83297	1154.35095	-414.14175	-48.58536	549.19073	-289.07144	110.14805	547.28680	-289.29749	-41.70615	494.39383	653.67126	110.42161	483.68008	652.74628	
2637	26.360	-171.99797	28.58398	-118.35943	213.53630	105.39693	-131.29443	-144.39122	49.78533	496.53604	209.61908	-28.45034	500.02228	51.77138	1152.87415	-413.76553	-48.53144	549.07178	-288.48102	109.32736	547.25037	-288.71008	-41.82074	493.70212	654.32800	110.15265	482.42679	653.05005	
2638	26.370	-172.35893	28.47344	-118.29063	214.10550	117.86064	-130.00296	-147.84665	62.45037	496.34616	209.29727	-28.51648	499.94754	51.57256	1152.03015	-413.21310	-48.71038	549.17035	-288.27695	109.79456	547.01886	-288.61606	-41.91248	492.70786	654.37341	110.24586	481.69238	653.61780	
2639	26.380	-172.67589	28.47152	-118.26676	214.26717	129.34587	-129.04350	-149.74968	74.32022	496.40637	208.49571	-28.60292	499.95041	50.05818	1151.47510	-413.30182	-48.77145	548.82764	-287.87552	109.54015	546.27057	-287.43192	-41.92055	492.40320	655.29510	110.09547	481.02505	654.24316	
2640	26.390	-173.04594	28.52535	-118.16452	214.02133	139.53464	-127.87162	-151.20357	85.94650	496.64200	208.27074	-28.80486	500.00064	49.30339	1151.20703	-412.80307	-48.41341	548.15955	-287.07947	109.38826	545.78003	-287.08414	-42.14602	492.23474	655.88245	109.87345	480.86252	654.65747	
2641	26.400	-173.26273	28.47087	-118.10256	214.88200	148.82993	-126.40253	-151.83533	96.40442	496.96432	208.02148	-28.80335	500.05957	48.97129	1151.11914	-411.96591	-48.38585	547.54022	-286.70013	110.13461	545.18353	-286.81445	-42.42762	492.29700	656.05280	109.80235	480.92691	655.29016	
2642	26.410	-173.61282	28.40441	-118.09835	216.72122	155.63025	-124.35732	-152.83847	104.14027	498.05554	207.83162	-28.66681	500.22534	48.99431	1150.96155	-411.44916	-48.64808	547.19214	-286.23837	109.97502	544.48541	-285.90146	-42.33623	492.47311	656.48724	109.86491	481.08014	655.85828	
2643	26.420	-173.97305	28.36133	-117.94982	217.67886	158.62878	-122.65118	-154.16801	108.57662	499.97528	207.76845	-28.64084	500.38712	50.00591	1150.47546	-411.23859	-48.59410	546.49860	-285.26801	109.48223	544.07678	-285.27817	-42.13612	492.75964	657.58636	109.87419	481.45255	656.68707	
2644	26.430	-174.35188	28.40215	-117.85123	219.35677	159.59814	-119.98223	-155.79204	108.43852	502.68466	207.63486	-28.58227	500.42197	51.11257	1149.88953	-411.10733	-48.86326	546.26666	-284.61658	108.81033	544.00842	-284.84668	-42.05719	493.08115	658.67621	109.86095	481.68903	657.20233	
2645	26.440	-174.64948	28.47489	-117.80379	222.06721	157.68240	-116.41893	-157.45947	106.18176	505.14832	207.40417	-28.55571	500.40082	51.31369	1148.92676	-411.29395	-49.02320	545.99817	-283.93643	109.52270	543.41193	-284.30432	-41.51790	493.39401	659.05804	110.48631	482.09912	657.84357	
2646	26.450	-175.01225	28.54836	-117.82232	222.09735	152.90443	-114.12740	-157.57936	102.35394	507.41162	207.06293	-28.52716	500.35944	51.76613	1148.25378	-411.31268	-49.07075	545.92261	-283.32571	109.31047	542.97864	-283.29443	-41.03965	494.17276	659.71808	111.05003	482.29871	658.58264	
2647	26.460	-175.22736	28.45383	-117.72107	222.01961	147.53955	-112.07368	-158.12193	98.37473	509.57025	206.56171	-28.61720	500.38602	51.75824	1147.81799	-411.30554	-48.98716	545.87085	-282.76013	109.94698	542.70612	-282.99026	-41.20480	494.60730	660.62433	110.54079	482.79306	659.27942	
2648	26.470	-175.44746	28.32561	-117.65315	223.35989	141.53471	-109.48817	-158.53375	92.76064	511.41537	205.99263	-28.63806	500.42584	51.58796	1147.25928	-411.14203	-48.69312	545.53918	-281.99567	109.96822	542.45483	-282.43179	-41.01976	494.89249	661.46368	110.58734	482.89337	659.82172	
2649	26.480	-175.85019	28.29575	-117.65265	223.89261	134.44943	-107.52255	-159.01070	86.22255	513.15332	205.64900	-28.72654	500.42746	51.76345	1147.00452	-410.79129	-48.60827	545.23004	-281.36813	109.68178	542.08374	-281.54202	-40.49778	495.05276	661.72638	111.52573	483.12735	660.52356	
2650	26.490	-176.30186	28.28862	-117.70110	224.41432	126.09901	-105.98717	-160.04994	78.91551	514.35730	205.37125	-28.79618	500.41180	52.20029	1146.96301	-410.25842	-48.62420	545.08765	-280.83853	109.86183	541.58112	-280.95935	-40.18610	495.37289	662.25153	112.11698	483.19669	661.02448	
2651	26.500	-176.69115	28.37873	-117.71246	225.61176	116.53815	-104.48657	-161.07770	70.67402	515.22437	205.32967	-28.79684	500.44156	52.97258	1146.88257	-409.87372	-48.65213	545.00330	-280.30457	110.14320	541.26605	-280.85123	-39.48571	495.58771	662.95734	112.39185	482.99258	661.39783	
2652	26.510	-176.95238	28.47749	-117.68015	225.40005	107.22713	-103.84622	-161.58104	61.07325	516.15393	205.23680	-28.87628	500.52634	54.12886	1146.59753	-409.45569	-48.57100	544.86694	-279.71561	109.63574	541.11292	-280.27789	-39.05241	495.49289	663.61847	112.86893	482.83054	661.73944	
2653	26.520	-177.14571	28.44683	-117.62936	227.20662	98.07406	-102.55067	-161.42955	50.99224	517.06494	205.21660	-28.88925	500.56659	55.03203	1146.42188	-409.07858	-48.42202	544.76306	-279.32663	109.76865	540.87262	-279.91415	-38.41804	495.16934	664.12402	113.49228	482.58389	662.23889	
2654	26.530	-177.31517	28.42336	-117.55986	228.01495	88.91971	-102.03371	-160.16179	43.01613	516.99701	205.01262	-29.01634	500.63614	56.21307	1146.25684	-408.55054	-48.12870	544.72705	-278.94562	109.96555	540.75439	-279.53510	-38.03190	494.91663	664.48694	113.64555	482.07373	662.60297	
2655	26.540	-177.52074	28.43177	-117.47594	228.14519	79.62578	-101.44587	-158.78784	35.56939	516.56836	204.73911	-29.12833	500.63519	57.12217	1146.18140	-407.93863	-47.77359	544.72968	-278.73804	110.41446	540.55261	-279.20383	-37.99237	494.60675	664.54309	114.00639	481.90768	662.88116	
2656	26.550	-177.83676	28.54232	-117.58981	229.37050	70.50888	-101.64525	-157.91040	27.43811	516.27625	204.48550	-29.22742	500.65036	57.68077	1146.23621	-407.52881	-47.61359	544.50421	-278.43936	110.77074	540.44232	-278.99628	-37.53033	494.75757	665.00574	114.60911	481.65463	663.10779	
2657	26.560	-178.10019	28.64672	-117.56065	230.28687	61.73801	-101.89278	-157.52977	18.95193	515.65436	204.23221	-29.30701	500.65466	57.96639	1146.27490	-407.23114	-47.12117	544.27509	-278.09009	111.17747	540.20996	-278.74371	-36.98843	494.66144	665.12531	115.14617	481.52405	663.30017	
2658	26.570	-178.44046	28.70195	-117.61815	231.27565	54.18210	-102.38583	-156.90787	10.85822	515.41235	203.88779	-29.37576	500.69049	58.37156	1146.14941	-407.06604	-46.65924	544.23035	-278.08151	111.48882	540.03253	-278.65060	-36.48701	494.40140	665.30627	115.52134	481.51416	663.32910	
2659	26.580	-178.72353	28.75520	-117.70378	230.89624	47.02464	-103.59312	-156.06477	3.81273	514.89270	203.58109	-29.44850	500.66217	58.76558	1145.85522	-407.17212	-46.13609	544.10938	-277.85367	111.84721	539.93195	-278.54547	-36.06662	494.18295	665.31287	116.18480	481.23151	663.45978	
